<?xml version="1.0" encoding="utf-8"?>
<!-- Generator: Adobe Illustrator 25.2.1, SVG Export Plug-In . SVG Version: 6.00 Build 0)  -->
<svg version="1.1" id="Layer_1" xmlns="http://www.w3.org/2000/svg" xmlns:xlink="http://www.w3.org/1999/xlink" x="0px" y="0px"
	 viewBox="0 0 600 600" style="enable-background:new 0 0 600 600;" xml:space="preserve">
<style type="text/css">
	.st0{fill:#D4AF37;}
</style>
<path d="M584.5,285.4C530.3,179.6,422.9,108,300,108S69.7,179.6,15.5,285.4c-4.6,9.2-4.6,20,0,29.2C69.7,420.4,177.1,492,300,492
	s230.3-71.6,284.5-177.4C589.2,305.4,589.2,294.6,584.5,285.4z M300,444c-98.7,0-189.1-55-237.9-144c48.8-89,139.3-144,237.9-144
	s189.1,55,237.9,144C489.1,389,398.7,444,300,444z"/>
<path class="st0" d="M300,188c-10.6,0.2-21.1,1.8-31.2,5c4.7,8.2,7.2,17.5,7.2,27c0,30.9-25.1,56-56,56c-9.5-0.1-18.8-2.6-27-7.2
	C175.9,328,210.1,390,269.4,407c59.3,17.1,121.2-17.1,138.3-76.4s-17.1-121.2-76.4-138.3C321.1,189.4,310.6,188,300,188z"/>
</svg>
